Patient4_TMGait_0pt6_02_right_18_EMG.mot
version=1
nRows=16
nColumns=33
inDegrees=no
endheader
time	1LAddLong	2LGlutMax	3LGlutMed	4LIliopsoas	5LSemiMemb	6LBicFemLong	7LRecFem	8LVastMed	9LVastLat	10LGasMed	11LTibAnt	12lTibPost	13LPeroneusLong	14LSol	15LExtDigLong	16LFlexDigLong	17RAddLong	18RGlutMax	19RGlutMed	20RIliopsoas	21RSemiMemb	22RBicFemLong	23RRecFem	24RVastMed	25RVastLat	26RGasMed	27RTibAnt	28RTibPost	29RPeroneusLong	30RSol	31RExtDigLong	32RFlexDigLong
22.788	0.013733	-0.12558	-0.024109	-0.006561	-0.066681	0.017548	0.061646	0.001068	-0.013428	0.25848	-0.004578	-0.03952	0.034027	0.052948	0.022888	-0.93094	-0.014954	0.025635	-0.15762	-0.009918	0.031128	-0.005035	-0.014038	-0.11353	0.022278	-0.013885	-0.088501	-0.009918	-0.09491	-0.059357	-0.003357	0.011444
22.789	0.015106	-0.11993	-0.03418	0.027618	0.003662	-0.020447	0.077972	0.000763	-0.03891	0.12329	-0.016785	-0.039978	-0.066986	-0.027771	0.046082	1.0899	0.002136	0.071716	-0.046997	-0.15793	0.037384	0.000763	0.027771	-0.11612	0.002747	-0.021515	-0.025024	-0.009766	-0.57358	-0.078583	0.009155	-0.000305
22.79	0.010376	-0.1152	-0.076904	-0.000458	0.025177	0.006866	0.13321	0.003967	-0.002899	-0.094299	-0.018005	-0.046539	-0.1236	0.025024	0.074921	-0.054932	0.00473	0.10529	0.15488	-0.19791	0.022583	-0.005493	-0.001068	-0.083008	0.016327	-0.022888	0.06424	-0.008545	-0.41977	-0.10193	-0.001068	-0.001678
22.791	0.01236	-0.099335	-0.003815	-0.002289	0.025482	0.091858	0.1265	0.008545	-0.008392	-0.21042	-0.005035	-0.046387	-0.093689	0.095215	0.076752	-0.46081	0.021362	0.10208	0.27268	-0.092468	-0.01709	0.031891	0.022736	-0.11505	0.027924	-0.036316	0.15625	-0.004425	-0.11963	-0.060883	-0.003052	-0.002899
22.792	0.001678	-0.069885	0.018005	-0.002441	-0.007324	0.058594	0.12283	0.002747	0.044708	-0.28824	-0.005493	-0.096588	-0.13962	0.18936	0.059052	0.21545	0.012665	0.041046	0.19241	0.067444	0.010223	0.004425	0.014191	-0.17258	0.011597	-0.047913	0.14816	-0.009155	0.096741	-0.011292	0.000458	-0.007782
22.793	0.000763	-0.12054	0.001373	0.006104	0.000916	0.015106	0.11032	-0.006256	0.23041	-0.67184	-0.000305	0.13916	-0.1622	0.23758	-0.011902	0.62622	0.02655	-0.006866	-0.12711	0.22736	0.012665	-0.02243	-0.002899	-0.15549	0.012512	-0.06485	0.10086	-0.007782	0.072174	0.019684	-0.000305	-0.013733
22.794	0.005188	-0.12772	-0.085449	0.009003	0.035858	0.005646	0.11231	-0.00412	0.19791	-0.41092	0.00351	0.93857	-0.11032	0.29755	-0.04303	0.20096	0.054932	0.003052	-0.5452	0.1326	-0.10346	-0.12329	0.032654	-0.16602	0.015869	-0.082703	0.059814	-0.00885	0.044098	-0.017548	-0.00351	-0.014343
22.795	0.006866	-0.099335	-0.11383	0.003204	0.02533	0.014343	0.13504	-0.005646	0.14511	0.18372	0.003204	-0.6694	-0.063782	-0.00351	0.001831	-0.018005	0.062866	0.038757	-0.31357	0.034485	-0.18936	-0.20187	0.076599	-0.2095	-0.007172	-0.11292	0.040131	-0.010529	-0.00885	-0.004272	-0.003052	-0.009308
22.796	0.008392	-0.087128	-0.072021	0.003204	0.056305	0.016022	0.12283	-0.001068	0.079193	-0.10452	-0.025787	-0.24979	0.1413	-0.20905	0.028381	-0.74188	0.055237	0.10788	-0.059357	0.074463	-0.21393	-0.17716	0.096283	-0.20645	-0.010681	-0.13641	0.019989	-0.01236	0.015106	-0.04715	-0.001221	-0.005188
22.797	0.006256	-0.085907	0.035553	0.002899	0.050964	0.013123	0.14053	0.001526	0.041809	-0.057831	-0.044556	0.04425	0.30106	-0.092468	0.007782	0.1947	0.021515	0.12741	0.10803	0.072174	-0.15808	-0.086517	0.041504	-0.083923	0.011749	-0.13123	0.015411	-0.012665	0.0177	-0.027161	-0.00351	0.002899
22.798	0.002136	-0.11795	0.004425	-0.000458	0.032501	0.006561	0.10117	0.00061	0.037842	0.30914	-0.031891	0.11536	0.22079	-0.067596	-0.053253	0.16419	-0.047607	0.042725	0.24353	0.027161	0.23483	0.11108	0.000305	0.020142	0.018921	-0.083313	0.026245	-0.008545	0.001373	-0.040283	0	-0.002289
22.799	0.002747	-0.11948	-0.006409	-0.009766	0.03067	-0.000153	0.12375	0.007629	0.020142	0.73364	-0.017853	0.46051	0.18265	0.038147	-0.045471	0.19608	-0.078888	0.011139	-0.11185	-0.01236	0.18372	0.24612	-0.001068	-0.023193	0.033875	-0.026855	0.024261	-0.007477	0.004578	0.007935	-0.000305	-0.001068
22.8	0.005035	-0.11932	0.012512	-0.004883	-0.006104	-0.00946	0.13275	0.002747	0.031433	0.47379	-0.020142	-0.29282	0.20996	-0.29434	-0.030212	0.17181	-0.028381	-0.050354	-0.37399	-0.014648	-0.18768	0.15366	0.015869	-0.057831	0.007935	0.046387	0.006104	-0.015717	0.045929	0.005798	-0.002441	-0.003357
22.801	0.004883	-0.11383	0.000305	-0.004425	0.010071	-0.016937	0.14008	0.003662	0.041809	-0.12756	-0.021362	-0.1799	0.10529	-0.24933	-0.035095	0.053406	0.02121	-0.041351	0.002441	-0.01297	-0.32806	0.091248	0.067444	-0.11978	-0.002289	0.1004	0.000916	-0.006866	0.047913	-0.016937	-0.002441	-0.002136
22.802	-0.006409	-0.097961	0.003815	0.01358	0.028992	0.002747	0.13718	0.000916	0.080566	-0.11932	0.002747	0.055847	-0.075226	-0.24414	-0.037231	-0.057526	0.045166	-0.009155	0.57175	-0.00824	-0.28061	0.054626	0.069427	-0.17273	0.009003	0.15701	-0.007477	-0.004578	0.021973	-0.01236	0.000916	0.005493
22.803	0.005798	-0.091553	-0.00061	0.030212	0.024719	0.007324	0.13428	0.003204	0.099487	0.009003	0.007324	0.011139	-0.10712	-0.081635	-0.044098	-0.082092	0.048065	0.048218	0.49591	0.010529	0.31754	0.10574	0.051575	-0.23468	0.006409	0.20386	-0.021515	-0.011444	-0.050201	-0.020294	-0.002899	0.010681
